<?xml version="1.0" encoding="UTF-8"?>
<svg xmlns="http://www.w3.org/2000/svg" width="512" height="512" viewBox="0 0 512 512">
  <defs>
    <linearGradient id="bg" x1="0" y1="0" x2="1" y2="1">
      <stop offset="0" stop-color="#fff7ed"/>
      <stop offset="1" stop-color="#f1f5f9"/>
    </linearGradient>
    <clipPath id="r">
      <rect x="0" y="0" width="512" height="512" rx="48" ry="48"/>
    </clipPath>
  </defs>
  <g clip-path="url(#r)">
    <rect width="512" height="512" fill="url(#bg)"/>
    <rect x="56" y="56" width="400" height="400" rx="36" fill="#ffffff" opacity="0.75"/>
    <g fill="none" stroke="#475569" stroke-width="18" stroke-linecap="round" stroke-linejoin="round" opacity="0.95">
      <path d="M168 214h176"/>
      <path d="M188 214v106c0 22 18 40 40 40h56c22 0 40-18 40-40V214"/>
      <path d="M214 214c0-18 16-32 36-32h12c20 0 36 14 36 32"/>
      <path d="M152 246h24"/>
      <path d="M336 246h24"/>
    </g>
    <text x="256" y="438" text-anchor="middle" font-family="ui-sans-serif,system-ui,-apple-system,Segoe UI,Roboto" font-size="28" fill="#64748b" letter-spacing="0.5">Kitchen</text>
  </g>
</svg>

