<?xml version="1.0" encoding="UTF-8"?>
<svg xmlns="http://www.w3.org/2000/svg" width="512" height="512" viewBox="0 0 512 512">
  <defs>
    <linearGradient id="bg" x1="0" y1="0" x2="1" y2="1">
      <stop offset="0" stop-color="#f1f5f9"/>
      <stop offset="1" stop-color="#e2e8f0"/>
    </linearGradient>
    <clipPath id="r">
      <rect x="0" y="0" width="512" height="512" rx="48" ry="48"/>
    </clipPath>
  </defs>
  <g clip-path="url(#r)">
    <rect width="512" height="512" fill="url(#bg)"/>
    <rect x="56" y="56" width="400" height="400" rx="36" fill="#ffffff" opacity="0.75"/>
    <g fill="none" stroke="#475569" stroke-width="18" stroke-linecap="round" stroke-linejoin="round" opacity="0.95">
      <path d="M256 156c52 32 104 32 104 32v104c0 86-104 132-104 132s-104-46-104-132V188s52 0 104-32z"/>
      <path d="M232 284c0-14 10-24 24-24s24 10 24 24"/>
      <path d="M256 308v32"/>
    </g>
    <text x="256" y="438" text-anchor="middle" font-family="ui-sans-serif,system-ui,-apple-system,Segoe UI,Roboto" font-size="28" fill="#64748b" letter-spacing="0.5">Security</text>
  </g>
</svg>

